<?xml version="1.0" encoding="UTF-8" standalone="no"?>
<!DOCTYPE svg PUBLIC "-//W3C//DTD SVG 1.1//EN" "http://www.w3.org/Graphics/SVG/1.1/DTD/svg11.dtd">
<svg xmlns="http://www.w3.org/2000/svg" xmlns:xlink="http://www.w3.org/1999/xlink" version="1.1" width="612pt" height="792pt" viewBox="0 0 612 792">
<g enable-background="new">
<path transform="matrix(.75,0,0,.75,0,0)" d="M 0 0 L 816 0 L 816 1056 L 0 1056 Z " fill="#ffffff"/>
<text xml:space="preserve" transform="matrix(.75 0 0 .75 72 86.5459)" font-size="14.666667" font-family="ArialMT"><tspan y="13.757161" x="0 4.0719759 8.143951 12.215927 22.800202 30.95131 38.279436 42.35141 50.502519 55.383165 63.53427 71.68538 79.83649 87.987598 92.05957 96.131549 104.28265 107.5388 114.86693 118.9389 123.01088 126.26703 138.4758 146.6269 150.69889 154.77086 162.92197 171.07308 175.14505 179.21703 187.36814 195.51924 200.39989 204.47187 212.62297 220.77408 228.92519 237.0763 240.33245 243.5886 251.7397 259.8908 263.96278 271.2909 275.36286 283.51399 288.39463 292.4666 300.61775 308.76887 312.84083 320.99195 329.14308 337.2942 342.17485 345.43098 353.5821 361.73323 365.80519 369.87715 378.02827 386.17939 394.3305 398.40248 408.98677 417.13789 421.20985 429.36097 437.5121 444.8402 448.09638 456.2475 464.39863 472.54975 476.6217 480.69367 488.8448 492.91676 500.24488 508.396 516.5471 528.75588 532.012 536.084 540.15597 550.74026 558.89138 567.0425 571.11447 575.1864 585.7707 593.9218 597.9938 606.1449 614.296">It was around this time that our deadline started nearing, and we decided to submit what we had</tspan></text>
<text xml:space="preserve" transform="matrix(.75 0 0 .75 72 101.09277)" font-size="14.666667" font-family="ArialMT"><tspan y="13.757161" x="0 8.151108 16.302216 23.63034 31.781449 35.037599 39.109575 47.26068 51.332658 59.483766 67.63487 71.70685 75.778827 79.8508 88.00191 91.25806 94.514209 101.84233 105.91431 113.24243 121.39354 133.60231 141.75342 145.00957 153.16068 157.23265 160.4888 168.63991 176.79102 180.86299 189.0141 197.1652 202.04586 206.11783 214.26894 222.42005 230.57115 233.8273 241.15543">despite not fully completing our goals.</tspan></text>
<text xml:space="preserve" transform="matrix(.75 0 0 .75 72 130.18555)" font-size="14.666667" font-family="Arial" font-weight="bold"><tspan y="13.757161" x="0 13.833267 22.785889 30.936997 35.817644 39.889619 48.84224 57.79486 63.49849 67.570468 78.15474 86.30585 91.18649 99.3376 108.29022 112.3622 121.31482 125.386798 129.45877 137.60988 145.76099 149.83296 157.98407 163.6877 171.8388 175.91078 186.49506 195.44768 199.51966 208.47228">What our Batch Files are Doing</tspan></text>
<text xml:space="preserve" transform="matrix(.75 0 0 .75 72 159.27735)" font-size="14.666667" font-family="Arial" font-weight="bold"><tspan y="13.757161" x="0 10.584274 21.984375 30.936997 40.7126">NOTE:</tspan></text>
<text fill="#ff0000" xml:space="preserve" transform="matrix(.75 0 0 .75 72 159.27735)" font-size="14.666667" font-family="ArialMT"><tspan y="13.757161" x="45.593248 52.92021 61.07132 65.143299 75.72757 83.055698 91.2068 95.27878 103.429889 111.58099 116.46164 120.533618 127.86174 136.01285 144.16396 152.31507 156.38704 160.45902 168.61013 176.76123 180.8332 184.90518 193.05629 197.12827 209.33704 217.48815 220.7443 228.8954 232.96738 245.17615 253.32726 257.39924 265.55036 273.70149 281.8526 285.92457 294.07569 302.22679 310.3779 314.44987 321.77799 329.9291 342.13789 354.34666 362.49778 370.6489 374.72087 378.79283 386.94395 395.09507 402.4232 410.5743 422.78309 434.99186 443.14299 451.2941">To Use our code, go to main method and comment/uncomment</tspan></text>
<text fill="#ff0000" xml:space="preserve" transform="matrix(.75 0 0 .75 72 159.27735)" font-size="14.666667" font-family="ArialMT"><tspan y="13.757161" x="459.43794 463.5099 471.661 479.81214 483.8841 488.76475 498.54035 506.69148 509.94764 514.0196 518.09158 522.1635 530.31466 533.5708 540.8989 544.9709 553.122 561.27316 566.1538 570.22579 575.10647 579.1784 583.25039 591.4015">the &#x201c;Edit this part&#x201d;, be</tspan></text>
<text fill="#ff0000" xml:space="preserve" transform="matrix(.75 0 0 .75 72 173.82422)" font-size="14.666667" font-family="ArialMT"><tspan y="13.757161" x="0 7.328125 15.479233 20.359879 28.510987 32.582963 36.654939 44.806047 48.87802 57.02913 65.18024 68.436389 75.76451 79.83649 87.987598 96.1387 103.46683 111.617938 115.68991 123.84102 131.99213 140.14324 144.21521 151.54334 159.69445 167.02257 171.09455 174.3507 182.5018 190.65291 194.72489 202.87599 211.0271 218.35523 226.50634 238.7151 250.92388 259.07499 267.22608 271.29804 279.44917 287.60029 291.67225 299.82337 307.9745 311.23066">sure to only have one section uncommented only</tspan></text>
<text xml:space="preserve" transform="matrix(.75 0 0 .75 72 188.37012)" font-size="14.666667" font-family="ArialMT"><tspan y="13.757161" x="24">&#x25cf;</tspan></text>
<text xml:space="preserve" transform="matrix(.75 0 0 .75 72 188.37012)" font-size="14.666667" font-family="ArialMT"><tspan y="13.757161" x="48 52.880647 60.20877 68.35988 71.61603 74.87218 83.023288 87.90393 96.05504 100.127017 103.38316 111.53427 119.68538 124.566028 128.638 136.78911 144.94022 149.01219 156.34032 164.49143 168.5634 172.63538 175.89153 179.14768 187.29878 191.37076 198.69889 206.84999 215.0011 225.58538 232.9135 236.98548 245.13658 253.28769 258.16835 262.2403 270.39143 275.27207 283.42317 291.57429 296.45494 304.60603 311.93415 319.26228 323.33424 331.48536 339.63648 343.70845 351.85957 360.01069 368.1618 376.31294 379.5691 382.82527 390.97639 399.1275 403.19947 411.3506 419.5017 427.65284 430.909 439.06013 446.38825 450.4602 454.53218 464.30778 467.5639 475.71504 483.04316 491.19429 495.26625 505.85054 514.00167 518.0736 525.40176 533.55288 541.704 549.0321 557.1832 561.2552 565.32717 573.4783 577.55026 588.1345 596.28567 601.16629">&#x201c;calibration&#x201d; batch file shows our progress on handling angles. Since we chose to work</tspan></text>
<text xml:space="preserve" transform="matrix(.75 0 0 .75 72 202.91602)" font-size="14.666667" font-family="ArialMT"><tspan y="13.757161" x="48 52.071977 56.95262 65.10373 77.3125 81.384479 88.7126 96.040729 100.92137 109.07248 113.144458 120.47258 128.62369 132.69567 136.76764 144.91875 153.06986 157.9505 162.02248 169.3506 177.50171 185.65282 193.80393 197.8759 202.75655 210.90766 214.97963 218.23578 226.38689 233.71501 237.78699 245.11511 249.18709 257.3382 264.66633 268.73829 280.94706 289.09815 296.42628 304.57737 308.64933 316.80046 324.12858 328.20054 338.78483 346.93595 351.0079 359.15904 367.31016 371.3821 375.45408 379.52604 390.11033 398.26145 401.5176 408.84574 416.99687 421.06883 431.6531 439.80424 447.13236 451.2043 454.46049 462.6116 470.76274 478.91386 482.9858 486.24198 490.31394 497.64207 500.89823 509.04936 517.20046 521.2724 525.34439 533.4955 541.6466 545.71859 553.8697 557.12588 564.454 568.52597 579.1102 587.26138 595.4125 599.2195 603.29147 610.61959">from scratch, our code reflects as much as we got, which was identifying the distCoeffs,</tspan></text>
<text xml:space="preserve" transform="matrix(.75 0 0 .75 72 217.46289)" font-size="14.666667" font-family="ArialMT"><tspan y="13.757161" x="48 52.880647 61.031755 65.10373 73.25484 77.32681 80.58296 88.73407 96.88518 100.95715 108.28528 116.436389 123.76451 127.83649 135.9876 140.05899 144.13097 148.20294 156.35405 164.50516 172.65627 176.72824 180.80022 185.68087 193.83197 201.98308 209.3112 212.56735 220.71846 224.79044 228.04659 236.1977 244.3488 248.42078 255.7489 263.90003 271.22816 275.3001 283.45124 288.33189 292.40388 296.47584 304.62696 309.5076 313.57957 321.73069 329.8818 333.95378 337.20994 349.4187 357.5698 365.72093 373.87205 377.944 386.09513 390.16709 394.23905 402.39018 405.64634 409.45335 413.5253 421.67643 426.55708 434.70817 442.85929 446.93125 451.0032 454.25938 466.46815 474.61924 482.77037 490.92149 498.2496 502.32157 506.39353 515.3462 523.4973 528.3779 532.44998 536.5219 544.67306 552.82418 556.8961 564.22427 572.37539 579.7035 587.8546 591.9266 600.0777">rotation vector, and translation vector for an image at different images. For the sake of</tspan></text>
<text xml:space="preserve" transform="matrix(.75 0 0 .75 72 232.00977)" font-size="14.666667" font-family="ArialMT"><tspan y="13.757161" x="48 55.328126 63.479234 75.688 83.83911 91.99022 96.062198 99.318347 107.46945 115.62056 119.692539 123.76451 127.02066 139.22943 147.38054 151.45252 159.60363 167.75473 175.90584 179.97782 184.85846 193.00957 201.16068 209.31179 216.63991 220.71189 223.96804 232.11914 240.27025 244.34223 247.59838 255.74948 259.82148 264.70213 272.8532 281.00434 289.15547 293.22743 296.48359 300.55555 303.8117 311.9628 320.11393 324.18589 334.77018 342.9213 346.99327 355.14439 363.2955 366.55168 373.8798 377.95176 381.20793 389.35905 396.68717 399.94334 408.09446 416.24559 424.3967 428.46867 436.61979 444.7709 452.92204 456.994 465.1451 469.21708 473.28904 481.44017 489.59129 494.47193 498.5439 505.87205 514.0232 517.27938 520.5355 528.68667 533.56729 541.7184 545.79037 549.0465 557.19766 565.34878 569.4207 572.6769 584.8857 593.0368 601.1879 609.33908 616.6672">computing time and reduction in repetition we only include one of our calibration images,</tspan></text>
<text xml:space="preserve" transform="matrix(.75 0 0 .75 72 246.55469)" font-size="14.666667" font-family="ArialMT"><tspan y="13.757161" x="48 56.151109 64.302219 68.37419 72.44617 83.03044 91.18155 95.253528 103.40463 111.55574 118.883869 127.03497 131.10695 143.31572 151.46683 159.61794 166.94606 171.01804 183.2268 191.37792 196.25856 204.40967 208.48165 219.06592 222.32207 226.39405 234.54515 238.61713 242.6891 250.84021 258.99134 263.0633 270.39143 278.54255 290.7513 298.9024 302.97438 306.23054 318.4393 326.5904 334.74153 342.89265 346.9646 350.22077 358.3719 365.7 369.77198 373.84394 381.99507 386.06703 390.13899 398.2901 401.54627 405.35328 409.42524 417.57637 422.457 430.6081 438.75923 442.83119 446.90315 455.05427 463.20539 471.3565 474.61268 482.7638 490.09193">but we have many more with the same image just at different angles.</tspan></text>
<text xml:space="preserve" transform="matrix(.75 0 0 .75 72 290.19435)" font-size="14.666667" font-family="ArialMT"><tspan y="13.757161" x="24">&#x25cf;</tspan></text>
<text xml:space="preserve" transform="matrix(.75 0 0 .75 72 290.19435)" font-size="14.666667" font-family="ArialMT"><tspan y="13.757161" x="48 56.95262 65.10373 73.25484 77.32681 85.47792 93.62903 100.95715 105.02913 109.101108 113.17308 121.32419 124.58034 127.83649 135.9876 146.57187 149.82802 157.97913 166.13024 170.20221 174.27419 177.53034 180.78649 188.93759 196.26572 200.33769 207.66582 215.81693 223.96804 234.5523 241.88043 245.95241 254.10352 262.25465 267.13529 271.20729 279.3584 284.23905 292.39015 300.54127 305.42195 313.57307 320.90119 328.2293 332.30128 340.4524 348.60353 352.67549 360.8266 368.97773 377.12886 385.27998 388.53614 391.7923 399.94343 408.09455 412.1665 419.49464 422.7508 430.07893 438.23005 442.302 450.45314 458.60426 466.75538 470.82734 478.15547 486.30659 491.18724 494.44337 498.51533 501.77149 509.0996 517.25076 521.3227 524.57888 532.73">The next following files shows our progress on handling size and verification</tspan></text>
<text xml:space="preserve" transform="matrix(.75 0 0 .75 72 304.74024)" font-size="14.666667" font-family="ArialMT"><tspan y="13.757161" x="24">&#x25cf;</tspan></text>
<text xml:space="preserve" transform="matrix(.75 0 0 .75 72 304.74024)" font-size="14.666667" font-family="ArialMT"><tspan y="13.757161" x="48 52.880647 62.65625 74.86502 83.01613 86.27228 89.52843 94.40907 98.48105 105.80917 113.96028 118.84093 122.09708 126.16905 129.4252 137.57631 144.90444 148.97641 153.04839 161.1995 169.3506 173.42258 181.57369 189.7248 197.05292 205.20403 213.35514 218.23578 222.30776 225.5639 233.71501 237.78699 241.85897 250.01007 258.1612 262.23316 266.3051 274.45625 281.78437 285.85633 289.92829 293.18446 305.39326 313.54438 321.6955">&#x201c;Small&#x201d; verifies the anchor in the test image</tspan></text>
<text xml:space="preserve" transform="matrix(.75 0 0 .75 72 319.28614)" font-size="14.666667" font-family="ArialMT"><tspan y="13.757161" x="72">&#x25cb;</tspan></text>
<text xml:space="preserve" transform="matrix(.75 0 0 .75 72 319.28614)" font-size="14.666667" font-family="ArialMT"><tspan y="13.757161" x="96 106.584278 114.73538 122.06351 125.31966 132.64778 140.79889 148.12702 152.19899 160.3501 168.5012 172.57318 180.72429 184.79627 188.05242 200.26119 208.4123 216.5634 224.71451 228.78649 236.11461 244.26572 248.33769 252.40967 260.5608 268.7119 272.78388 276.85585 280.9278 289.07893 296.40705 300.479 304.55097 307.80714 315.13526 319.2072 324.08787 332.23896 335.49513 343.64625 347.7182 350.97438 358.3025 366.4536 370.52558 377.8537 381.10987 388.438 396.5891 400.66108 404.73304 412.88417 416.95613 421.02809 429.1792 437.33033 441.40229 449.5534 457.70454 465.03266 473.18379 481.3349">Resizes both image so that test is relative size to the anchor</tspan></text>
<text xml:space="preserve" transform="matrix(.75 0 0 .75 72 333.833)" font-size="14.666667" font-family="ArialMT"><tspan y="13.757161" x="72">&#x25cb;</tspan></text>
<text xml:space="preserve" transform="matrix(.75 0 0 .75 72 333.833)" font-size="14.666667" font-family="ArialMT"><tspan y="13.757161" x="96 105.775608 113.10373 121.25484 129.40595 132.6621 137.54274 145.69385 153.02198 157.09395 169.30272 177.45383 184.78195 188.85393 192.9259 200.25403 208.40514 220.6139 232.82268 240.97379 249.1249 253.19687 260.525 268.6761 271.93226 280.08338 284.96403 289.036 297.18714 305.33827 309.41023 319.9945 328.14564 336.29676 344.44789 348.51985 356.67094 364.82206 372.15019 380.3013 384.37327 387.62944 399.8382 407.9893 416.1404 424.29154 428.3635 436.51463 444.66575 452.81687 456.88883 460.9608 464.21696 472.36808 480.5192 484.59117 496.79994 504.95103 512.2792 516.35116 520.4231 527.7512 535.90237 548.1111 560.3198 568.47097 576.6221 580.69406 588.02218 596.1733 599.42947 607.58059">Acquires most common color between each image and find most common color</tspan></text>
<text xml:space="preserve" transform="matrix(.75 0 0 .75 72 348.3789)" font-size="14.666667" font-family="ArialMT"><tspan y="13.757161" x="96 104.15111 112.302219 119.63034 126.958469 135.10958 139.18155 143.25353 148.13417 158.71845 166.86956 170.94153 180.71714 184.78911 196.99788 205.14899 213.3001 221.4512 228.77933">bucket (No K means)</tspan></text>
<text xml:space="preserve" transform="matrix(.75 0 0 .75 72 362.92579)" font-size="14.666667" font-family="ArialMT"><tspan y="13.757161" x="72">&#x25cb;</tspan></text>
<text xml:space="preserve" transform="matrix(.75 0 0 .75 72 362.92579)" font-size="14.666667" font-family="ArialMT"><tspan y="13.757161" x="96 99.25615 103.328128 107.4001 115.55121 123.70232 127.77429 135.9254 139.99738 148.14849 156.29959 163.62772 170.95584 179.10695 183.17893 190.50705 194.57903 202.73014 207.61078 215.76189 219.83386 227.98497 232.05695 236.12892 240.2009 248.352 256.5031 260.57508 267.9032 276.05433 288.2631 296.41419 300.48616 307.81428 315.9654 324.11653 328.99717 337.14826 340.40443 348.55555 356.70668 360.77867 368.92979 376.2579 380.32987 383.58604 391.73716 395.8091 399.88108 408.0322 416.18333 420.25529 428.4064 436.55754 440.6295 447.9576 456.10874 459.3649 467.51603 472.39668 476.46867 484.61979 487.87596 495.20408 499.27604 507.42716 515.57827 520.45889 528.61 540.8187 544.89077 548.9627 556.29086 564.44198 572.5931 583.17739 587.2493 591.3213 599.4724 607.62356">if both buckets are at the same coordinates in the 3d color histogram, show they</tspan></text>
<text xml:space="preserve" transform="matrix(.75 0 0 .75 72 377.4707)" font-size="14.666667" font-family="ArialMT"><tspan y="13.757161" x="96 104.15111 109.03175 117.18286 121.25484 129.40595 133.47792 145.68669 153.8378 157.90978 165.2379">are a match</tspan></text>
<text xml:space="preserve" transform="matrix(.75 0 0 .75 72 392.01759)" font-size="14.666667" font-family="ArialMT"><tspan y="13.757161" x="72">&#x25cb;</tspan></text>
<text xml:space="preserve" transform="matrix(.75 0 0 .75 72 392.01759)" font-size="14.666667" font-family="ArialMT"><tspan y="13.757161" x="96 105.775608 113.92671 122.07782 125.33397 132.6621 136.73407 148.94284 157.09395 161.16593 168.49405 176.64516 180.71714 184.78911 192.94022 205.14899 213.3001 216.55625 224.70735 228.77933">Apply match template</tspan></text>
<text xml:space="preserve" transform="matrix(.75 0 0 .75 72 406.56446)" font-size="14.666667" font-family="ArialMT"><tspan y="13.757161" x="72">&#x25cb;</tspan></text>
<text xml:space="preserve" transform="matrix(.75 0 0 .75 72 406.56446)" font-size="14.666667" font-family="ArialMT"><tspan y="13.757161" x="96 100.071979 104.14395 108.21593 116.367038 120.43901 128.59012 133.47077 137.54274 149.75151 157.90262 162.78327 170.93437 175.00635 187.21512 195.36623 199.4382 206.76633 214.91744 218.98941 223.06139 231.2125 243.42127 251.57238 254.82852 262.9796 267.05158 275.2027 279.27467 286.60279 294.7539 302.90504 311.05616 315.9368 324.0879 331.41603 335.48799 343.6391 350.96723 359.11836 363.999 367.25514 375.40626 383.55738 387.62934 395.78047 400.6611 404.7331 412.06123 415.31739 423.4685 430.79664 438.94776 443.0197 446.27589 454.427 458.49897 466.6501 471.53074 479.68183 487.00996 490.2661 502.47489 505.73103 509.80299 516.04257 520.1145 524.18649 532.3376 537.21829 540.47439 548.6255 552.69747 556.7694 560.8414 568.9925 577.1436 581.2156 585.28756 589.3595 597.5106 605.66177">If 3 or more match template squares overlap or close in proximity, print that they</tspan></text>
<text xml:space="preserve" transform="matrix(.75 0 0 .75 72 421.11036)" font-size="14.666667" font-family="ArialMT"><tspan y="13.757161" x="96 104.15111 109.03175 117.18286 121.25484 129.40595 133.47792 145.68669 153.8378 157.90978 165.2379">are a match</tspan></text>
<text xml:space="preserve" transform="matrix(.75 0 0 .75 72 435.65626)" font-size="14.666667" font-family="ArialMT"><tspan y="13.757161" x="24">&#x25cf;</tspan></text>
<text xml:space="preserve" transform="matrix(.75 0 0 .75 72 435.65626)" font-size="14.666667" font-family="ArialMT"><tspan y="13.757161" x="48 52.880647 65.08942 73.240528 81.39163 84.64778 92.79889 105.00766 109.888309 113.96028 118.03226 121.28841 129.43952 137.59062 144.91875 148.99073 157.14183 165.29294 173.44405 177.51602 184.84415 192.99526 197.8759 201.13205 205.20403 208.46018 216.61128 223.9394 228.01139 232.08336 240.23447 248.38558 252.45755 260.60865 268.75978 276.0879 284.239 292.39015 297.27079 301.34278 304.59895 312.75007 316.82203 320.89399 329.0451 337.19624 341.2682 345.34016 353.49128 360.8194 364.89137 368.96333 372.21949 384.42826 392.57936 400.73048 408.8816 412.95356 421.10469 425.17665 429.2486 441.45738 449.60847 457.75959 461.01576 469.16688 481.37565 485.44764 492.77577 496.03193 503.36006 511.51118 519.6623 523.73428 526.9904 539.1992 547.35037 555.50149">&#x201c;Medium&#x201d; finds and verifies the anchor in the test image of medium sized image</tspan></text>
<text xml:space="preserve" transform="matrix(.75 0 0 .75 72 450.20314)" font-size="14.666667" font-family="ArialMT"><tspan y="13.757161" x="72">&#x25cb;</tspan></text>
<text xml:space="preserve" transform="matrix(.75 0 0 .75 72 450.20314)" font-size="14.666667" font-family="ArialMT"><tspan y="13.757161" x="96 106.584278 114.73538 122.06351 125.31966 132.64778 140.79889 148.12702 152.19899 160.3501 168.5012 172.57318 180.72429 184.79627 188.05242 200.26119 208.4123 216.5634 224.71451 228.78649 236.11461 244.26572 248.33769 252.40967 260.5608 268.7119 272.78388 276.85585 280.9278 289.07893 296.40705 300.479 304.55097 307.80714 315.13526 319.2072 324.08787 332.23896 335.49513 343.64625 347.7182 350.97438 358.3025 366.4536 370.52558 377.8537 381.10987 388.438 396.5891 400.66108 404.73304 412.88417 416.95613 421.02809 429.1792 437.33033 441.40229 449.5534 457.70454 465.03266 473.18379 481.3349 486.21556 490.28755 495.16819 503.31929 506.57545 510.38246 514.4544 522.6055 527.4862 535.6373 543.78848 547.8604 551.9324 559.2605 562.51669 569.8448 577.9959 582.0679 586.13986 594.29098 602.4421">Resizes both image so that test is relative size to the anchor (different size than</tspan></text>
<text xml:space="preserve" transform="matrix(.75 0 0 .75 72 464.75)" font-size="14.666667" font-family="ArialMT"><tspan y="13.757161" x="96 103.328128 115.536899 123.688 126.94415 130.2003">small)</tspan></text>
<text xml:space="preserve" transform="matrix(.75 0 0 .75 72 479.29493)" font-size="14.666667" font-family="ArialMT"><tspan y="13.757161" x="72">&#x25cb;</tspan></text>
<text xml:space="preserve" transform="matrix(.75 0 0 .75 72 479.29493)" font-size="14.666667" font-family="ArialMT"><tspan y="13.757161" x="96 105.775608 117.984378 126.13548 134.28659 142.4377 149.76583 153.8378 162.39682 166.4688 173.79692 177.05307 181.12505 185.19702 189.269 197.82802 201.9 209.22812 214.10877 222.25988 230.41098 234.48296 238.55493 246.70604 250.77802 254.84999 258.10615 266.25727 274.4084 278.48036 290.68913 298.8402 306.16835 310.2403 314.31227 321.64039 324.89656 337.10533 340.36146 343.6176 351.76875 356.64939 360.72138 368.8725 377.02363 384.35176 392.50288 400.654 405.53465 409.60664 417.75776 425.90888 430.78953 434.8615 438.11769 450.32646 458.47755 466.62867">Kmeans + sift + crop to find most similar anchor ear image</tspan></text>
<text xml:space="preserve" transform="matrix(.75 0 0 .75 72 493.8418)" font-size="14.666667" font-family="ArialMT"><tspan y="13.757161" x="72">&#x25cb;</tspan></text>
<text xml:space="preserve" transform="matrix(.75 0 0 .75 72 493.8418)" font-size="14.666667" font-family="ArialMT"><tspan y="13.757161" x="96 105.775608 113.92671 122.07782 125.33397 132.6621 136.73407 148.94284 157.09395 161.16593 168.49405 176.64516 180.71714 184.78911 192.94022 205.14899 213.3001 216.55625 224.70735 228.77933">Apply match template</tspan></text>
<text xml:space="preserve" transform="matrix(.75 0 0 .75 72 508.3877)" font-size="14.666667" font-family="ArialMT"><tspan y="13.757161" x="72">&#x25cb;</tspan></text>
<text xml:space="preserve" transform="matrix(.75 0 0 .75 72 508.3877)" font-size="14.666667" font-family="ArialMT"><tspan y="13.757161" x="96 100.071979 104.14395 108.21593 116.367038 120.43901 128.59012 133.47077 137.54274 149.75151 157.90262 162.78327 170.93437 175.00635 187.21512 195.36623 199.4382 206.76633 214.91744 218.98941 223.06139 231.2125 243.42127 251.57238 254.82852 262.9796 267.05158 275.2027 279.27467 286.60279 294.7539 302.90504 311.05616 315.9368 324.0879 331.41603 335.48799 343.6391 350.96723 359.11836 363.999 367.25514 375.40626 383.55738 387.62934 395.78047 400.6611 404.7331 412.06123 415.31739 423.4685 430.79664 438.94776 443.0197 446.27589 454.427 458.49897 466.6501 471.53074 479.68183 487.00996 490.2661 502.47489 505.73103 509.80299 516.04257 520.1145 524.18649 532.3376 537.21829 540.47439 548.6255 552.69747 556.7694 560.8414 568.9925 577.1436 581.2156 585.28756 589.3595 597.5106 605.66177">If 3 or more match template squares overlap or close in proximity, print that they</tspan></text>
<text xml:space="preserve" transform="matrix(.75 0 0 .75 72 522.9346)" font-size="14.666667" font-family="ArialMT"><tspan y="13.757161" x="96 104.15111 109.03175 117.18286 121.25484 129.40595 133.47792 145.68669 153.8378 157.90978 165.2379">are a match</tspan></text>
<text xml:space="preserve" transform="matrix(.75 0 0 .75 72 537.48049)" font-size="14.666667" font-family="ArialMT"><tspan y="13.757161" x="24">&#x25cf;</tspan></text>
<text xml:space="preserve" transform="matrix(.75 0 0 .75 72 537.48049)" font-size="14.666667" font-family="ArialMT"><tspan y="13.757161" x="48 52.880647 61.031755 69.18286 74.06351 82.214618 90.36572 95.24637 99.318347 103.39032 106.64647 114.79758 122.948688 130.27681 134.34879 142.4999 150.651 158.80211 162.87409 170.20221 178.35332 183.23397 186.49011 190.56209 193.81824 201.96935 209.29747 213.36945 217.44142 225.59253 233.74364 237.81562 245.96672 254.11783 261.44596 269.59706 277.74818 282.6288 286.7008 289.95698 298.1081 302.18006 306.25205 314.40318 322.5543 326.62626 330.6982 338.84934 346.17747 350.24943 354.32139 357.57756 369.78633 377.9374 386.08854 394.23966 398.3116 406.46275 410.5347 414.60667 422.75779 426.82975 430.0859 438.23704 443.11769 451.26878 459.4199 464.30055 468.37254 471.6287 483.83747 491.98857 500.13969">&#x201c;Large&#x201d; finds and verifies the anchor in the test image of a larger image</tspan></text>
<text xml:space="preserve" transform="matrix(.75 0 0 .75 72 552.02639)" font-size="14.666667" font-family="ArialMT"><tspan y="13.757161" x="72">&#x25cb;</tspan></text>
<text xml:space="preserve" transform="matrix(.75 0 0 .75 72 552.02639)" font-size="14.666667" font-family="ArialMT"><tspan y="13.757161" x="96 106.584278 114.73538 122.06351 125.31966 132.64778 140.79889 148.12702 152.19899 160.3501 168.5012 172.57318 180.72429 184.79627 188.05242 200.26119 208.4123 216.5634 224.71451 228.78649 236.11461 244.26572 248.33769 252.40967 260.5608 268.7119 272.78388 276.85585 285.00697 293.15809 300.4862 308.63734 316.78846 321.6691 325.7411 328.99726 336.32539 340.39735 345.27799 353.42909 356.68525 364.83638 368.90834 372.1645 379.4926 387.64375 391.7157 399.04383 402.3 409.6281 417.77925 421.8512 425.92317 434.07429 438.14625 442.2182 450.36933 458.52046 462.5924 466.66438 474.8155 482.14363 486.21559 490.28755 495.16819 503.31929 506.57545 510.38246 514.4544 522.6055 527.4862 535.6373 543.78848 547.8604 551.9324 559.2605 562.51669 569.8448 577.9959 582.0679 586.13986 594.29098 602.4421">Resizes both image so that anchor is relative size to the test (different size than</tspan></text>
<text xml:space="preserve" transform="matrix(.75 0 0 .75 72 566.57327)" font-size="14.666667" font-family="ArialMT"><tspan y="13.757161" x="96 103.328128 115.536899 123.688 126.94415 130.2003 134.27228 142.42339 150.5745 158.7256 162.79758 175.00635 183.15746 191.30857 194.56472 202.71582 214.92459">small and medium)</tspan></text>
<text xml:space="preserve" transform="matrix(.75 0 0 .75 72 581.11917)" font-size="14.666667" font-family="ArialMT"><tspan y="13.757161" x="72">&#x25cb;</tspan></text>
<text xml:space="preserve" transform="matrix(.75 0 0 .75 72 581.11917)" font-size="14.666667" font-family="ArialMT"><tspan y="13.757161" x="96 105.775608 117.984378 126.13548 134.28659 142.4377 149.76583 153.8378 162.39682 166.4688 173.79692 177.05307 181.12505 185.19702 189.269 197.82802 201.9 209.22812 214.10877 222.25988 230.41098 234.48296 238.55493 246.70604 250.77802 254.84999 258.10615 266.25727 274.4084 278.48036 290.68913 298.8402 306.16835 310.2403 314.31227 321.64039 324.89656 337.10533 340.36146 343.6176 351.76875 356.64939 360.72138 368.8725 377.02363 384.35176 392.50288 400.654 405.53465 409.60664 417.75776 425.90888 430.78953 434.8615 438.11769 450.32646 458.47755 466.62867">Kmeans + sift + crop to find most similar anchor ear image</tspan></text>
<text xml:space="preserve" transform="matrix(.75 0 0 .75 72 595.666)" font-size="14.666667" font-family="ArialMT"><tspan y="13.757161" x="72">&#x25cb;</tspan></text>
<text xml:space="preserve" transform="matrix(.75 0 0 .75 72 595.666)" font-size="14.666667" font-family="ArialMT"><tspan y="13.757161" x="96 105.775608 113.92671 122.07782 125.33397 132.6621 136.73407 148.94284 157.09395 161.16593 168.49405 176.64516 180.71714 184.78911 192.94022 205.14899 213.3001 216.55625 224.70735 228.77933">Apply match template</tspan></text>
<text xml:space="preserve" transform="matrix(.75 0 0 .75 72 610.21096)" font-size="14.666667" font-family="ArialMT"><tspan y="13.757161" x="72">&#x25cb;</tspan></text>
<text xml:space="preserve" transform="matrix(.75 0 0 .75 72 610.21096)" font-size="14.666667" font-family="ArialMT"><tspan y="13.757161" x="96 100.071979 104.14395 108.21593 116.367038 120.43901 128.59012 133.47077 137.54274 149.75151 157.90262 162.78327 170.93437 175.00635 187.21512 195.36623 199.4382 206.76633 214.91744 218.98941 223.06139 231.2125 243.42127 251.57238 254.82852 262.9796 267.05158 275.2027 279.27467 286.60279 294.7539 302.90504 311.05616 315.9368 324.0879 331.41603 335.48799 343.6391 350.96723 359.11836 363.999 367.25514 375.40626 383.55738 387.62934 395.78047 400.6611 404.7331 412.06123 415.31739 423.4685 430.79664 438.94776 443.0197 446.27589 454.427 458.49897 466.6501 471.53074 479.68183 487.00996 490.2661 502.47489 505.73103 509.80299 516.04257 520.1145 524.18649 532.3376 537.21829 540.47439 548.6255 552.69747 556.7694 560.8414 568.9925 577.1436 581.2156 585.28756 589.3595 597.5106 605.66177">If 3 or more match template squares overlap or close in proximity, print that they</tspan></text>
<text xml:space="preserve" transform="matrix(.75 0 0 .75 72 624.7578)" font-size="14.666667" font-family="ArialMT"><tspan y="13.757161" x="96 104.15111 109.03175 117.18286 121.25484 129.40595 133.47792 145.68669 153.8378 157.90978 165.2379">are a match</tspan></text>
<text xml:space="preserve" transform="matrix(.75 0 0 .75 72 682.94338)" font-size="14.666667" font-family="Arial" font-weight="bold"><tspan y="13.757161" x="0 13.833267 22.785889 30.936997 35.817644 39.889619 53.457918 61.609025 65.681 76.265277 80.33725 89.28987 98.24249 102.31447 107.195117 111.26709 120.21971 124.29169 133.24431 137.31629 145.46739">What We Didn&#x2019;t Finish</tspan></text>
<path transform="matrix(.75,0,0,.75,72,130.18555)" stroke-width="1.3333334" stroke-linecap="butt" stroke-miterlimit="10" stroke-linejoin="miter" fill="none" stroke="#000000" d="M 0 15.086589 L 217.33333 15.086589 "/>
<path transform="matrix(.75,0,0,.75,72,159.27735)" stroke-width="1.3333334" stroke-linecap="butt" stroke-miterlimit="10" stroke-linejoin="miter" fill="none" stroke="#000000" d="M 0 14.963216 L 45.333333 14.963216 "/>
<path transform="matrix(.75,0,0,.75,72,682.94338)" stroke-width="1.3333334" stroke-linecap="butt" stroke-miterlimit="10" stroke-linejoin="miter" fill="none" stroke="#000000" d="M 0 15.40918 L 154.66667 15.40918 "/>
</g>
</svg>
