<?xml version="1.0" encoding="UTF-8" standalone="no"?>
<!DOCTYPE svg PUBLIC "-//W3C//DTD SVG 1.1//EN" "http://www.w3.org/Graphics/SVG/1.1/DTD/svg11.dtd">
<svg xmlns="http://www.w3.org/2000/svg" xmlns:xlink="http://www.w3.org/1999/xlink" version="1.1" width="612pt" height="792pt" viewBox="0 0 612 792">
<g enable-background="new">
<path transform="matrix(.75,0,0,.75,0,0)" d="M 0 0 L 816 0 L 816 1056 L 0 1056 Z " fill="#ffffff"/>
<text xml:space="preserve" transform="matrix(.75 0 0 .75 72 72)" font-size="14.666667" font-family="ArialMT"><tspan y="13.757161" x="0 8.966354 13.03833 16.29448 24.445588 28.517563 32.58954 40.740648 44.812623 48.884599 52.956575 61.10768 69.25879 73.330768 76.586917 84.73802 92.06615 99.39427 107.54538 115.69649 123.02461 127.09659 130.35274 138.50385 142.57582 146.6478 154.7989 162.95001 167.02199 174.35012 177.60626 185.75737 193.0855 200.41362 204.4856 215.06987 223.22098 228.10163 236.25273 240.3247 248.47582 256.62693 263.95506 267.21119 270.46736 277.79548 281.86744 286.74809 294.89918 302.2273 305.48347 313.63459 324.21888 332.37 340.52113 344.59309 352.7442 360.89533 369.04646 373.1184 377.99906 386.15016 394.30128 402.4524 410.60353 413.85969 417.11585 425.26698 433.4181 437.49006 440.74623 448.89735 452.9693 461.12043 469.27156 474.1522 478.22419 481.48036 489.63148 497.7826 502.66325 510.81434 514.0705 522.2216 530.37277 534.4447 538.51669 546.6678 551.54849 559.6996 567.8507 576.00186 584.15298 592.3041 600.4552">A lot of the lessons in the class were easily reviewed and reapplied in our learning throughout</tspan></text>
<text xml:space="preserve" transform="matrix(.75 0 0 .75 72 86.5459)" font-size="14.666667" font-family="ArialMT"><tspan y="13.757161" x="0 4.0719759 12.2230839 15.479233 22.807358 26.879334 35.03044 39.911088 48.062196 51.318346 59.46945 66.79758 70.86955 74.94153 79.013507 87.966129 92.84677 100.99788 113.20665 117.278629 125.42973 132.75786 136.014 144.16512 152.31623 156.3882 164.5393 172.69042 180.84152 188.99263 196.32076 203.64888 207.72086 219.92963 228.08074 232.15271 240.30382 248.45493 256.60603 263.93415 268.0061 272.07807 280.2292 284.30116 291.62928 296.50993 304.661 312.81214 316.8841 325.03523 329.10719 337.2583 340.51448 344.32148 348.39344 356.54457 361.4252 369.5763 377.72743 381.79939 385.87135 389.9433 397.27143 405.42256 413.57368 420.9018 424.97377 433.12489 437.19685 441.2688 444.52497 456.73374 464.88484 473.03596 481.18708 488.5152 493.39585 501.54695 509.69807 517.8492 526.0003 530.07229 538.2234 546.3745 550.4465 558.5976 565.9257 569.9977 573.25387 581.40499 589.5561">this project. From using opencv methods to create different types of images(edge detection,</tspan></text>
<text xml:space="preserve" transform="matrix(.75 0 0 .75 72 101.09277)" font-size="14.666667" font-family="ArialMT"><tspan y="13.757161" x="0 8.151108 11.407257 19.558365 24.43901 31.767136 36.64778 40.719758 44.791734 52.94284 56.19899 59.45514 63.527116 67.59909 75.7502 83.901309 87.97328 98.557559 106.708667 114.03679 118.108768 122.18074 130.33185 134.40383 144.9881 153.1392 161.29032 165.36229 169.43427 180.01854 188.16965 192.24163 200.39273 208.54384 216.69495 220.76692 224.02307 232.17418 240.32529 245.20594 253.35704 261.50816 269.65925 273.7312 278.61186 286.76295 294.09107 302.2422 310.3933 314.46528 317.72145 325.04957 329.12153 332.3777 340.5288 344.60078 352.7519 360.903 365.78367 369.85566 373.11183 381.26295 388.59107 392.66304 400.81416 405.6948 413.8459 421.174 425.24598 433.3971 441.54823 449.69935 457.85047 461.92243 465.9944 473.3225 477.39448 485.5456 490.42625 498.57734 506.72846 510.8004 518.12857 521.3847 528.7128 531.969 540.1201 548.27127">blurs), all the way to what we had learned recently in our lectures about stereo vision.</tspan></text>
<text xml:space="preserve" transform="matrix(.75 0 0 .75 72 144.73047)" font-size="14.666667" font-family="ArialMT"><tspan y="13.757161" x="0 13.568298 21.719407 25.791382 33.94249 42.093599 50.244707 58.395814 63.27646 71.42757 78.75569 82.82767 86.08382 98.29259 106.443698 110.51567 118.66678 126.81789 130.88986 139.04097 147.19208 157.77635 161.84833 169.99944 173.25559 177.06259 181.13457 184.39072 191.71884 199.86995 203.1261 207.19808 211.27005 214.5262 218.59818 222.67015 233.25443 241.40554 249.55664 252.81279 260.9639 265.0359 273.187 281.33815 285.4101 289.48207 297.63319 301.70515 309.85627 318.0074 322.07936 326.1513 334.30244 337.5586 344.88673 348.95869 357.1098 361.99046 370.14155 373.3977 381.54884 388.87696 392.9489 397.02088 401.09284 411.67713 419.82826 423.0844 430.41255 438.56367 442.63563 453.2199 461.37104 465.443 469.51496 477.66609 485.8172 493.96833 502.11946 510.27058 514.3425 518.4145 525.7426 533.89376 542.04489 545.301 553.45217 557.5241 560.7803 568.9314 572.18759 576.2595 579.5157 587.6668 590.923 594.17916 601.50729 605.5792 613.73037">We underestimated how difficult it would be to do this project, which we thought could initially be</tspan></text>
<text xml:space="preserve" transform="matrix(.75 0 0 .75 72 159.27735)" font-size="14.666667" font-family="ArialMT"><tspan y="13.757161" x="0 7.328125 15.479233 18.735383 26.063508 34.214616 42.365724 46.4377 54.588808 61.91693 65.17308 73.32419 81.475299 85.54727 93.69838 97.770359 105.09848 113.24959 121.400699 129.5518 132.80796 140.95906 145.03104 153.18215 157.25412 161.3261 164.58225 176.79102 184.94213 193.09323 201.24434 205.31632 212.64444 220.79555 228.12368 232.19565 236.26763 244.41873 252.56984 256.6418 264.7929 269.67356 277.82466 285.15278 289.22474 297.37586 305.52699 309.59895 317.75007 325.0782 329.15016 332.4063 340.55744 348.70857 352.78053 360.93165 369.08277 377.2339 381.30586 393.51463 401.6657 405.73768 413.0658 421.21693 424.47309 432.6242 440.77534 444.8473 448.6543 457.60694 465.75807 473.90919 477.98115 485.30928 492.6374 500.7885 508.93965 517.09078 521.1627 529.31387 537.46499 545.6161 549.68807 557.8392 561.09536 564.90237 568.9743 572.23049 579.5586 587.7097 590.9659 595.03787 602.36599 606.4379 614.58908">solved using a couple of image key features detection and matching. The scope and difficulty of</tspan></text>
<text xml:space="preserve" transform="matrix(.75 0 0 .75 72 173.82422)" font-size="14.666667" font-family="ArialMT"><tspan y="13.757161" x="0 4.0719759 12.2230839 20.374192 24.446167 32.597276 37.47792 45.62903 48.885179 57.036287 64.36441 68.436389 72.50836 80.65947 85.540119 93.69122 104.2755 108.34747 116.49858 120.57056 124.64253 132.79364 140.94475 145.01673 148.27288 156.42398 163.7521 168.63275 176.78386 184.93497 188.19112 196.34223 199.59838 207.74948 211.82146 216.7021 224.85321 228.92519 237.0763 241.14827 249.29938 256.6275 260.69947 271.28376 279.43489 283.50685 291.65797 296.5386 304.6897 312.84083 317.72148 325.87257 333.20069 340.5288 348.67994 356.83106 360.903 364.97499 373.1261 378.00675 386.15785 394.30897 402.46009 410.6112 414.68318 422.8343 430.9854 435.86607 439.93806 448.08918 452.96983 461.1209 464.37709 472.5282 479.85633 483.92829 488.00025 496.15138 504.3025 511.6306 519.78176 527.93289 536.084 540.15597 548.30709 553.18777 556.4439 564.59506">the project grew at an incredible rate as we progressed through our project encountering</tspan></text>
<text xml:space="preserve" transform="matrix(.75 0 0 .75 72 188.37012)" font-size="14.666667" font-family="ArialMT"><tspan y="13.757161" x="0 8.151108 13.031754 21.182862 29.33397 32.59012 40.741228 52.949998 57.021974 65.17308 69.245059 73.31703 81.46814 86.348789 90.42076 98.57187 103.452518 111.60362 119.75473 123.01088 131.16199 143.37076 147.44274 155.59384 163.74495 171.89606 175.96804 180.04001 188.19112 191.44727 198.77539 202.84737 213.43164 221.58275 228.91088 232.98285 240.31098 248.46208 260.67085 268.82197 272.89393 281.04505 284.3012 292.45234 300.60346 304.6754 315.2597 323.41084 327.4828 338.06709 346.2182 351.09886 359.24995 363.3219 371.47303 379.62416 383.6961 387.76808 395.9192 403.2473 411.39845 419.54957 426.8777 430.94966 434.2058 442.35694 450.50807 454.58003 458.65199 462.72395 466.7959 470.86787 479.01899 486.3471 494.49824 502.64936 506.7213 514.87246 523.02359 526.2797 529.5359 536.864 540.936 544.19216 552.34329 560.4944 564.56637 572.71749 580.0456 584.11758 588.1895 596.34066 600.4126 608.5637 616.71487">problem after problem and this was something we were not expecting. It eventually led us to our</tspan></text>
<text xml:space="preserve" transform="matrix(.75 0 0 .75 72 202.91602)" font-size="14.666667" font-family="ArialMT"><tspan y="13.757161" x="0 7.328125 15.479233 20.359879 25.240525 33.391633 41.54274 45.614717 49.68669 57.8378 65.98891 69.245059 77.396167 81.46814 85.540119 93.69122 97.7632 101.835178 109.98628 118.13739 122.209369 126.28134 134.43245 142.58356 145.8397 153.99082 162.14192 166.2139 174.365 182.51612 185.77227 193.92337 197.99535 202.06732 210.21843 214.2904 218.36238 226.51349 229.76964 233.02579 240.35391 244.42589 251.75402 259.90513 272.1139 280.265 283.52119 291.6723 295.74427 303.8954 307.96736 312.0393 320.19044 328.34156 332.4135 340.56465 345.44529 353.59638 356.85255 365.00367 372.3318 376.40376 380.4757 388.62684 396.77796 404.92909 409.00105 419.58534 427.73646 430.9926 434.24879 442.3999 446.47187 458.68064 466.83174 474.98286 483.13398 490.4621 494.53407 505.11836 513.2695 517.34146 525.49258 528.7487 536.89987 545.05099 547.8491">current point of not being able to fully complete the project and while means we didn't</tspan></text>
<text xml:space="preserve" transform="matrix(.75 0 0 .75 72 217.46289)" font-size="14.666667" font-family="ArialMT"><tspan y="13.757161" x="0 8.151108 15.479233 22.807358 30.958466 43.167238 51.318346 54.574495 57.830644 65.15877 73.309879 77.38185 85.53296 93.68407 98.56471 102.63669 105.89284 114.043949 117.300098 121.37207 124.62822 132.77933 136.03548 140.10746 148.25856 156.40967 164.56078 167.81693 171.8889 175.96088 186.54515 194.69626 198.76824 206.91934 215.07045 223.22156 227.29354 230.54969 238.70079 246.8519 251.73255 259.88368 268.0348 276.1859 280.25788 287.586 295.73713 299.80909 312.01786 320.16896 327.49708 335.6482 339.72016 351.92893 360.08003 364.96067 373.11177 377.18373 385.33485 393.48597 401.6371 409.7882 413.86018 417.93214 426.08326 434.23439 442.3855 450.53663 457.86476 465.19288 469.26484 473.3368 481.4879 489.63905 497.79017 501.86213 512.4464 520.59756 524.6695 532.8206 540.97177 549.12289 553.1948 561.34597 566.22659 574.3777 581.7058 584.962 593.1131 601.2642 608.59237 611.8485 618.0881">accomplish our initial goal, we had learned so much more about opencv than we had previously.</tspan></text>
<clipPath id="cp70">
<path d="M 0 720 L 612 720 L 612 792 L 0 792 Z " fill-rule="evenodd"/>
</clipPath>
<g clip-path="url(#cp70)">
<text xml:space="preserve" transform="matrix(.75 0 0 .75 72 741.4541)" font-size="14.666667" font-family="ArialMT"><tspan y="13.757161" x="607.69778 615.8489">15</tspan></text>
</g>
</g>
</svg>
